# xmcd CD database file
# Copyright (C) 1997 Ti Kan
#
# Track frame offsets:
#  150
#  18940
#  38507
#  58115
#  80852
#  98875
#  119387
#  137735
#  149722
#  161372
#  172362
#  187807
#  214002
#  229655
#  257015
#  274960
#  290820
#  304827
#
# Disc length: 4303 seconds
#
# Revision: 1
# Processed by: cddbd v1.4b41PL1 Copyright (c) Steve Scherf et al.
# Submitted via: CDWizzard Release:4.32
#
DISCID=1010cd12
DTITLE=Kiki Dee - Amoureuse
DYEAR=1900
DGENRE=
TTITLE0=Amoureuse
TTITLE1=Loving And Free
TTITLE2=Chicago
TTITLE3=I Got The Music In Me
TTITLE4=(You Don't Know) How Glad I Am
TTITLE5=Step By Step
TTITLE6=Dark Side Of Your Soul
TTITLE7=Why Don't I Run Away from You
TTITLE8=Runnin' Out Of Fools
TTITLE9=Ain't Nothing Like The Real Thing
TTITLE10=One Jump Ahead Of The Storm
TTITLE11=First Thing In The Morning
TTITLE12=Talk To Me
TTITLE13=You Need Help
TTITLE14=You're Holding Me Too Tight
TTITLE15=One Step
TTITLE16=Can't Take My Eyes Off You
TTITLE17=Stay With Me, Baby
EXTD=
EXTT0=
EXTT1=
EXTT2=
EXTT3=
EXTT4=
EXTT5=
EXTT6=
EXTT7=
EXTT8=
EXTT9=
EXTT10=
EXTT11=
EXTT12=
EXTT13=
EXTT14=
EXTT15=
EXTT16=
EXTT17=
PLAYORDER=
